<?xml version="1.0" encoding="utf-8"?>
<!-- Generator: Adobe Illustrator 26.3.1, SVG Export Plug-In . SVG Version: 6.00 Build 0)  -->
<svg version="1.1" id="Layer_1" xmlns="http://www.w3.org/2000/svg" xmlns:xlink="http://www.w3.org/1999/xlink" x="0px" y="0px"
	 viewBox="0 0 841.89 355.85" style="enable-background:new 0 0 841.89 355.85;" xml:space="preserve">
<style type="text/css">
	.st0{fill:url(#SVGID_1_);}
	.st1{fill:url(#SVGID_00000139264700448684939920000010898357135222736566_);}
	.st2{fill:url(#SVGID_00000029046773597165824920000005702185378142763913_);}
	.st3{fill:url(#SVGID_00000062886953953253054980000016342781764537801885_);}
	.st4{fill:url(#SVGID_00000015326388982711235980000015213624869116384670_);}
	.st5{fill:url(#SVGID_00000067207957733955446020000007626874281460797615_);}
	.st6{fill:url(#SVGID_00000057831508570091692830000010914876250020341122_);}
	.st7{fill:url(#SVGID_00000178176001971116122790000003426499891033146533_);}
	.st8{fill:url(#SVGID_00000124119399579327233040000005067590641464544432_);}
	.st9{fill:url(#SVGID_00000024691578555848392880000008461661079803171485_);}
	.st10{fill:url(#SVGID_00000137849338750761617200000006929435638449102476_);}
	.st11{fill:url(#SVGID_00000000939882184693837890000014188981774655682442_);}
	.st12{fill:url(#SVGID_00000144319629962531321280000005461784225358252168_);}
	.st13{fill:url(#SVGID_00000084501803564637436870000012961769267487382925_);}
	.st14{fill:url(#SVGID_00000008847348772605188650000011494957226859189662_);}
	.st15{fill:url(#SVGID_00000040565907621219955290000017730179919528245410_);}
	.st16{fill:url(#SVGID_00000014616366140634289260000016575293460316809660_);}
	.st17{fill:url(#SVGID_00000068649463634554232370000010294641317149223869_);}
	.st18{fill:url(#SVGID_00000116230060034483481860000012873902920628546483_);}
	.st19{fill:url(#SVGID_00000008863985360457335590000015526576924543641769_);}
	.st20{fill:url(#SVGID_00000023251200198228895510000000861579868845676448_);}
	.st21{fill:url(#SVGID_00000102511777559390584630000011625436236501413815_);}
	.st22{fill:url(#SVGID_00000091696990487101493390000005574883565928239270_);}
	.st23{fill:url(#SVGID_00000140697920322125479800000011057790998702819762_);}
	.st24{fill:url(#SVGID_00000115509669919797992960000015996853232443361679_);}
	.st25{fill:#12345E;}
	.st26{fill:url(#SVGID_00000155845454604676795490000001776624114483958426_);}
	.st27{fill:url(#SVGID_00000149367573111196122450000008522527431317406876_);}
	.st28{fill:url(#SVGID_00000050663876227961275980000008163108862330435726_);}
</style>
<g>
	<linearGradient id="SVGID_1_" gradientUnits="userSpaceOnUse" x1="701.192" y1="310.9022" x2="180.6504" y2="285.5575">
		<stop  offset="0.1349" style="stop-color:#00AEEF"/>
		<stop  offset="0.8873" style="stop-color:#12345E"/>
	</linearGradient>
	<path class="st0" d="M163.22,274.04h2.81v11.07h0.09l9.17-11.07h3.18l-6.91,8.41l7.97,13.66h-3.14l-6.59-11.47l-3.79,4.49v6.98
		h-2.81V274.04z"/>
	
		<linearGradient id="SVGID_00000087412758215193945760000007644060290021212605_" gradientUnits="userSpaceOnUse" x1="701.1078" y1="312.6298" x2="180.5516" y2="287.2843">
		<stop  offset="0.1349" style="stop-color:#00AEEF"/>
		<stop  offset="0.8873" style="stop-color:#12345E"/>
	</linearGradient>
	<path style="fill:url(#SVGID_00000087412758215193945760000007644060290021212605_);" d="M185.8,279.77h2.29l0.23,2.36h0.09
		c1.56-1.53,3.24-2.76,5.49-2.76c3.45,0,4.99,2.22,4.99,6.39v10.36h-2.77v-10c0-3.05-0.92-4.35-3.09-4.35
		c-1.67,0-2.83,0.85-4.47,2.51v11.84h-2.77V279.77z"/>
	
		<linearGradient id="SVGID_00000013179627477204912790000013675843867640650901_" gradientUnits="userSpaceOnUse" x1="701.1548" y1="311.666" x2="180.5986" y2="286.3206">
		<stop  offset="0.1349" style="stop-color:#00AEEF"/>
		<stop  offset="0.8873" style="stop-color:#12345E"/>
	</linearGradient>
	<path style="fill:url(#SVGID_00000013179627477204912790000013675843867640650901_);" d="M206.35,287.96c0-5.46,3.57-8.6,7.58-8.6
		s7.58,3.14,7.58,8.6c0,5.41-3.57,8.56-7.58,8.56S206.35,293.38,206.35,287.96z M218.65,287.96c0-3.75-1.91-6.3-4.72-6.3
		s-4.72,2.55-4.72,6.3c0,3.75,1.91,6.26,4.72,6.26S218.65,291.71,218.65,287.96z"/>
	
		<linearGradient id="SVGID_00000122684536223704863050000007560553806406055327_" gradientUnits="userSpaceOnUse" x1="701.218" y1="310.3693" x2="180.6617" y2="285.0238">
		<stop  offset="0.1349" style="stop-color:#00AEEF"/>
		<stop  offset="0.8873" style="stop-color:#12345E"/>
	</linearGradient>
	<path style="fill:url(#SVGID_00000122684536223704863050000007560553806406055327_);" d="M227.08,279.77h2.83l2.43,9.44
		c0.35,1.55,0.66,3.02,0.97,4.56h0.13c0.35-1.54,0.71-3.03,1.11-4.56l2.52-9.44h2.7l2.55,9.44c0.4,1.55,0.76,3.02,1.14,4.56h0.13
		c0.35-1.54,0.66-3.01,1.01-4.56l2.38-9.44h2.64l-4.39,16.35h-3.37l-2.36-8.79c-0.4-1.55-0.71-3.05-1.11-4.71h-0.13
		c-0.35,1.66-0.68,3.21-1.12,4.75l-2.29,8.74h-3.23L227.08,279.77z"/>
	
		<linearGradient id="SVGID_00000078035318560607567780000006062639904876198075_" gradientUnits="userSpaceOnUse" x1="701.4373" y1="305.864" x2="180.8811" y2="280.5186">
		<stop  offset="0.1349" style="stop-color:#00AEEF"/>
		<stop  offset="0.8873" style="stop-color:#12345E"/>
	</linearGradient>
	<path style="fill:url(#SVGID_00000078035318560607567780000006062639904876198075_);" d="M256.55,292.84v-20.68h2.77v20.88
		c0,0.85,0.37,1.18,0.77,1.18c0.16,0,0.29,0,0.61-0.07l0.38,2.11c-0.39,0.14-0.87,0.26-1.59,0.26
		C257.4,296.52,256.55,295.2,256.55,292.84z"/>
	
		<linearGradient id="SVGID_00000128487105867867375000000005401023564319921079_" gradientUnits="userSpaceOnUse" x1="701.2989" y1="308.7063" x2="180.7427" y2="283.3609">
		<stop  offset="0.1349" style="stop-color:#00AEEF"/>
		<stop  offset="0.8873" style="stop-color:#12345E"/>
	</linearGradient>
	<path style="fill:url(#SVGID_00000128487105867867375000000005401023564319921079_);" d="M267.28,287.96c0-5.32,3.59-8.6,7.35-8.6
		c4.17,0,6.52,2.99,6.52,7.67c0,0.58-0.05,1.17-0.13,1.57h-11.01c0.2,3.46,2.32,5.71,5.43,5.71c1.57,0,2.86-0.51,4.07-1.31
		l0.99,1.81c-1.43,0.94-3.17,1.7-5.4,1.7C270.75,296.52,267.28,293.34,267.28,287.96z M278.71,286.63c0-3.28-1.47-5.06-4.03-5.06
		c-2.3,0-4.35,1.85-4.69,5.06H278.71z"/>
	
		<linearGradient id="SVGID_00000100362375024444093160000014308494165682817454_" gradientUnits="userSpaceOnUse" x1="701.5283" y1="303.9958" x2="180.972" y2="278.6503">
		<stop  offset="0.1349" style="stop-color:#00AEEF"/>
		<stop  offset="0.8873" style="stop-color:#12345E"/>
	</linearGradient>
	<path style="fill:url(#SVGID_00000100362375024444093160000014308494165682817454_);" d="M287.38,287.96c0-5.3,3.35-8.6,7.07-8.6
		c1.9,0,3.15,0.71,4.58,1.89l-0.12-2.8v-6.3h2.77v23.96h-2.29l-0.23-1.93h-0.09c-1.27,1.27-3.01,2.33-4.96,2.33
		C290.02,296.52,287.38,293.41,287.38,287.96z M298.92,291.96v-8.57c-1.4-1.24-2.65-1.7-3.99-1.7c-2.61,0-4.69,2.52-4.69,6.25
		c0,3.92,1.62,6.25,4.49,6.25C296.24,294.19,297.55,293.46,298.92,291.96z"/>
	
		<linearGradient id="SVGID_00000086690101525900406400000009601036182135619977_" gradientUnits="userSpaceOnUse" x1="701.2233" y1="310.2602" x2="180.667" y2="284.9148">
		<stop  offset="0.1349" style="stop-color:#00AEEF"/>
		<stop  offset="0.8873" style="stop-color:#12345E"/>
	</linearGradient>
	<path style="fill:url(#SVGID_00000086690101525900406400000009601036182135619977_);" d="M309.34,299.26c0-1.4,0.89-2.72,2.4-3.7
		v-0.13c-0.83-0.52-1.46-1.4-1.46-2.68c0-1.36,0.95-2.44,1.8-3.03v-0.13c-1.08-0.85-2.12-2.44-2.12-4.39c0-3.58,2.82-5.82,6.14-5.82
		c0.9,0,1.71,0.18,2.31,0.4h5.7v2.13h-3.36c0.77,0.74,1.33,1.97,1.33,3.37c0,3.5-2.64,5.67-5.99,5.67c-0.79,0-1.7-0.19-2.44-0.55
		c-0.59,0.49-1.04,1.04-1.04,1.93c0,1.04,0.67,1.77,2.86,1.77h3.18c3.8,0,5.71,1.19,5.71,3.91c0,3.04-3.21,5.65-8.27,5.65
		C312.1,303.64,309.34,302.07,309.34,299.26z M321.66,298.4c0-1.51-1.15-2.03-3.3-2.03h-2.82c-0.62,0-1.4-0.07-2.12-0.24
		c-1.17,0.83-1.67,1.8-1.67,2.74c0,1.76,1.77,2.87,4.74,2.87C319.61,301.74,321.66,300.11,321.66,298.4z M319.56,285.19
		c0-2.38-1.55-3.82-3.47-3.82c-1.93,0-3.47,1.42-3.47,3.82c0,2.38,1.59,3.88,3.47,3.88S319.56,287.57,319.56,285.19z"/>
	
		<linearGradient id="SVGID_00000147921598923363709100000003690438457619607981_" gradientUnits="userSpaceOnUse" x1="701.4454" y1="305.698" x2="180.8891" y2="280.3526">
		<stop  offset="0.1349" style="stop-color:#00AEEF"/>
		<stop  offset="0.8873" style="stop-color:#12345E"/>
	</linearGradient>
	<path style="fill:url(#SVGID_00000147921598923363709100000003690438457619607981_);" d="M329.21,287.96c0-5.32,3.59-8.6,7.35-8.6
		c4.17,0,6.52,2.99,6.52,7.67c0,0.58-0.05,1.17-0.13,1.57h-11.01c0.2,3.46,2.32,5.71,5.43,5.71c1.57,0,2.86-0.51,4.07-1.31
		l0.99,1.81c-1.43,0.94-3.17,1.7-5.4,1.7C332.68,296.52,329.21,293.34,329.21,287.96z M340.64,286.63c0-3.28-1.47-5.06-4.03-5.06
		c-2.3,0-4.35,1.85-4.69,5.06H340.64z"/>
	
		<linearGradient id="SVGID_00000082356944154892605240000010724097047443682188_" gradientUnits="userSpaceOnUse" x1="701.5402" y1="303.7497" x2="180.984" y2="278.4043">
		<stop  offset="0.1349" style="stop-color:#00AEEF"/>
		<stop  offset="0.8873" style="stop-color:#12345E"/>
	</linearGradient>
	<path style="fill:url(#SVGID_00000082356944154892605240000010724097047443682188_);" d="M359.15,287.26
		c0-2.42,1.76-4.06,3.77-4.06c2.01,0,3.77,1.64,3.77,4.06c0,2.42-1.76,4.06-3.77,4.06C360.92,291.32,359.15,289.68,359.15,287.26z"
		/>
	
		<linearGradient id="SVGID_00000005945528440301653310000003148171711288619706_" gradientUnits="userSpaceOnUse" x1="701.7159" y1="300.142" x2="181.1597" y2="274.7966">
		<stop  offset="0.1349" style="stop-color:#00AEEF"/>
		<stop  offset="0.8873" style="stop-color:#12345E"/>
	</linearGradient>
	<path style="fill:url(#SVGID_00000005945528440301653310000003148171711288619706_);" d="M384.51,274.04h2.9l7.99,13.88l2.38,4.57
		h0.13c-0.14-2.23-0.36-4.71-0.36-7.02v-11.43h2.67v22.08h-2.9l-7.99-13.89l-2.38-4.56h-0.13c0.14,2.23,0.36,4.59,0.36,6.9v11.55
		h-2.67V274.04z"/>
	
		<linearGradient id="SVGID_00000166648297650611595370000011181343638027251848_" gradientUnits="userSpaceOnUse" x1="701.6321" y1="301.8629" x2="181.0759" y2="276.5175">
		<stop  offset="0.1349" style="stop-color:#00AEEF"/>
		<stop  offset="0.8873" style="stop-color:#12345E"/>
	</linearGradient>
	<path style="fill:url(#SVGID_00000166648297650611595370000011181343638027251848_);" d="M408.16,287.96c0-5.32,3.59-8.6,7.35-8.6
		c4.17,0,6.52,2.99,6.52,7.67c0,0.58-0.05,1.17-0.13,1.57H410.9c0.2,3.46,2.32,5.71,5.43,5.71c1.57,0,2.86-0.51,4.07-1.31l0.99,1.81
		c-1.43,0.94-3.18,1.7-5.4,1.7C411.63,296.52,408.16,293.34,408.16,287.96z M419.59,286.63c0-3.28-1.47-5.06-4.03-5.06
		c-2.3,0-4.35,1.85-4.69,5.06H419.59z"/>
	
		<linearGradient id="SVGID_00000097481525829546750930000006461585886184187820_" gradientUnits="userSpaceOnUse" x1="701.775" y1="298.9293" x2="181.2187" y2="273.5839">
		<stop  offset="0.1349" style="stop-color:#00AEEF"/>
		<stop  offset="0.8873" style="stop-color:#12345E"/>
	</linearGradient>
	<path style="fill:url(#SVGID_00000097481525829546750930000006461585886184187820_);" d="M429.58,291.06v-9.04h-2.43v-2.09
		l2.56-0.16l0.33-4.59h2.31v4.59h4.43v2.25h-4.43v9.09c0,2,0.64,3.16,2.53,3.16c0.58,0,1.33-0.22,1.86-0.44l0.53,2.09
		c-0.92,0.31-2.01,0.61-3.03,0.61C430.76,296.52,429.58,294.32,429.58,291.06z"/>
	
		<linearGradient id="SVGID_00000047774195619711813170000010611719231836351106_" gradientUnits="userSpaceOnUse" x1="701.726" y1="299.9358" x2="181.1697" y2="274.5904">
		<stop  offset="0.1349" style="stop-color:#00AEEF"/>
		<stop  offset="0.8873" style="stop-color:#12345E"/>
	</linearGradient>
	<path style="fill:url(#SVGID_00000047774195619711813170000010611719231836351106_);" d="M441.88,279.77h2.83l2.43,9.44
		c0.35,1.55,0.66,3.02,0.97,4.56h0.13c0.35-1.54,0.71-3.03,1.11-4.56l2.52-9.44h2.7l2.55,9.44c0.4,1.55,0.76,3.02,1.14,4.56h0.13
		c0.35-1.54,0.66-3.01,1.01-4.56l2.38-9.44h2.64l-4.39,16.35h-3.37l-2.36-8.79c-0.4-1.55-0.71-3.05-1.11-4.71h-0.13
		c-0.35,1.66-0.68,3.21-1.12,4.75l-2.29,8.74h-3.23L441.88,279.77z"/>
	
		<linearGradient id="SVGID_00000181773782491025516150000013724919537942342575_" gradientUnits="userSpaceOnUse" x1="701.7783" y1="298.86" x2="181.2221" y2="273.5145">
		<stop  offset="0.1349" style="stop-color:#00AEEF"/>
		<stop  offset="0.8873" style="stop-color:#12345E"/>
	</linearGradient>
	<path style="fill:url(#SVGID_00000181773782491025516150000013724919537942342575_);" d="M470,287.96c0-5.46,3.57-8.6,7.58-8.6
		c4.01,0,7.58,3.14,7.58,8.6c0,5.41-3.57,8.56-7.58,8.56C473.56,296.52,470,293.38,470,287.96z M482.29,287.96
		c0-3.75-1.91-6.3-4.72-6.3c-2.81,0-4.72,2.55-4.72,6.3c0,3.75,1.91,6.26,4.72,6.26C480.38,294.22,482.29,291.71,482.29,287.96z"/>
	
		<linearGradient id="SVGID_00000024707581613075037980000004181174193599403685_" gradientUnits="userSpaceOnUse" x1="701.8329" y1="297.7378" x2="181.2767" y2="272.3924">
		<stop  offset="0.1349" style="stop-color:#00AEEF"/>
		<stop  offset="0.8873" style="stop-color:#12345E"/>
	</linearGradient>
	<path style="fill:url(#SVGID_00000024707581613075037980000004181174193599403685_);" d="M492.81,279.77h2.29l0.23,2.98h0.09
		c1.14-2.07,2.81-3.38,4.65-3.38c0.72,0,1.23,0.09,1.74,0.34l-0.52,2.43c-0.56-0.18-0.93-0.27-1.59-0.27
		c-1.38,0-3.03,0.99-4.14,3.76v10.5h-2.77V279.77z"/>
	
		<linearGradient id="SVGID_00000037688775168679404520000013485785295995289532_" gradientUnits="userSpaceOnUse" x1="702.038" y1="293.5258" x2="181.4818" y2="268.1804">
		<stop  offset="0.1349" style="stop-color:#00AEEF"/>
		<stop  offset="0.8873" style="stop-color:#12345E"/>
	</linearGradient>
	<path style="fill:url(#SVGID_00000037688775168679404520000013485785295995289532_);" d="M507.84,272.15h2.72v16.23h0.09l6.98-8.62
		h3.07l-5.48,6.57l6.2,9.78h-3.02l-4.77-7.86l-3.07,3.57v4.29h-2.72V272.15z"/>
	
		<linearGradient id="SVGID_00000180366407867340320340000011475214469811712660_" gradientUnits="userSpaceOnUse" x1="701.9598" y1="295.1333" x2="181.4035" y2="269.7879">
		<stop  offset="0.1349" style="stop-color:#00AEEF"/>
		<stop  offset="0.8873" style="stop-color:#12345E"/>
	</linearGradient>
	<path style="fill:url(#SVGID_00000180366407867340320340000011475214469811712660_);" d="M536.54,287.26
		c0-2.42,1.76-4.06,3.77-4.06c2.01,0,3.77,1.64,3.77,4.06c0,2.42-1.76,4.06-3.77,4.06C538.3,291.32,536.54,289.68,536.54,287.26z"/>
	
		<linearGradient id="SVGID_00000090280204755697266850000014048576100159463859_" gradientUnits="userSpaceOnUse" x1="702.1367" y1="291.4995" x2="181.5804" y2="266.1541">
		<stop  offset="0.1349" style="stop-color:#00AEEF"/>
		<stop  offset="0.8873" style="stop-color:#12345E"/>
	</linearGradient>
	<path style="fill:url(#SVGID_00000090280204755697266850000014048576100159463859_);" d="M560.61,285.1c0-7.12,4.2-11.46,9.8-11.46
		c2.68,0,4.78,1.3,6.07,2.72l-1.54,1.83c-1.16-1.24-2.62-2.08-4.48-2.08c-4.17,0-6.95,3.42-6.95,8.92c0,5.55,2.65,9.03,6.83,9.03
		c2.11,0,3.71-0.92,5.12-2.48l1.54,1.76c-1.74,2.03-3.9,3.19-6.77,3.19C564.73,296.52,560.61,292.27,560.61,285.1z"/>
	
		<linearGradient id="SVGID_00000125571836205316027850000000837561037196931738_" gradientUnits="userSpaceOnUse" x1="702.0423" y1="293.4385" x2="181.486" y2="268.0931">
		<stop  offset="0.1349" style="stop-color:#00AEEF"/>
		<stop  offset="0.8873" style="stop-color:#12345E"/>
	</linearGradient>
	<path style="fill:url(#SVGID_00000125571836205316027850000000837561037196931738_);" d="M583.2,291.87c0-3.56,3.07-5.34,10.04-6.1
		c-0.01-2.1-0.71-4.13-3.38-4.13c-1.89,0-3.6,0.9-4.88,1.75l-1.08-1.9c1.5-0.99,3.8-2.13,6.42-2.13c3.99,0,5.68,2.65,5.68,6.72
		v10.03h-2.29l-0.23-1.96h-0.09c-1.56,1.3-3.38,2.36-5.41,2.36C585.25,296.52,583.2,294.82,583.2,291.87z M593.24,292.13v-4.54
		c-5.48,0.66-7.33,2-7.33,4.09c0,1.86,1.26,2.62,2.87,2.62C590.35,294.29,591.65,293.53,593.24,292.13z"/>
	
		<linearGradient id="SVGID_00000183940683400643476170000008471017342525499538_" gradientUnits="userSpaceOnUse" x1="701.9303" y1="295.7379" x2="181.3741" y2="270.3925">
		<stop  offset="0.1349" style="stop-color:#00AEEF"/>
		<stop  offset="0.8873" style="stop-color:#12345E"/>
	</linearGradient>
	<path style="fill:url(#SVGID_00000183940683400643476170000008471017342525499538_);" d="M604.53,279.77h2.29l0.23,1.89h0.09
		c1.48-1.23,3.32-2.29,5.21-2.29c4.23,0,6.48,3.28,6.48,8.33c0,5.57-3.35,8.83-7.08,8.83c-1.5,0-3.03-0.69-4.53-1.9l0.07,2.85v5.54
		h-2.77V279.77z M615.98,287.72c0-3.61-1.23-6.03-4.31-6.03c-1.39,0-2.78,0.76-4.37,2.23v8.57c1.48,1.24,2.9,1.7,3.98,1.7
		C613.98,294.19,615.98,291.76,615.98,287.72z"/>
	
		<linearGradient id="SVGID_00000000194115873037633660000001628700531578629784_" gradientUnits="userSpaceOnUse" x1="702.3009" y1="288.1273" x2="181.7446" y2="262.7818">
		<stop  offset="0.1349" style="stop-color:#00AEEF"/>
		<stop  offset="0.8873" style="stop-color:#12345E"/>
	</linearGradient>
	<path style="fill:url(#SVGID_00000000194115873037633660000001628700531578629784_);" d="M626.06,274.62
		c0-1.09,0.83-1.79,1.91-1.79c1.08,0,1.91,0.7,1.91,1.79c0,1.04-0.84,1.79-1.91,1.79C626.89,276.41,626.06,275.66,626.06,274.62z
		 M626.56,279.77h2.77v16.35h-2.77V279.77z"/>
	
		<linearGradient id="SVGID_00000033355802380395393510000010012852218374139523_" gradientUnits="userSpaceOnUse" x1="702.2695" y1="288.772" x2="181.7133" y2="263.4266">
		<stop  offset="0.1349" style="stop-color:#00AEEF"/>
		<stop  offset="0.8873" style="stop-color:#12345E"/>
	</linearGradient>
	<path style="fill:url(#SVGID_00000033355802380395393510000010012852218374139523_);" d="M638.69,291.06v-9.04h-2.43v-2.09
		l2.56-0.16l0.33-4.59h2.31v4.59h4.43v2.25h-4.43v9.09c0,2,0.64,3.16,2.53,3.16c0.58,0,1.33-0.22,1.86-0.44l0.53,2.09
		c-0.92,0.31-2.01,0.61-3.03,0.61C639.87,296.52,638.69,294.32,638.69,291.06z"/>
	
		<linearGradient id="SVGID_00000011026616588488091890000010463706065280540583_" gradientUnits="userSpaceOnUse" x1="702.2031" y1="290.1345" x2="181.6469" y2="264.789">
		<stop  offset="0.1349" style="stop-color:#00AEEF"/>
		<stop  offset="0.8873" style="stop-color:#12345E"/>
	</linearGradient>
	<path style="fill:url(#SVGID_00000011026616588488091890000010463706065280540583_);" d="M651.22,291.87
		c0-3.56,3.07-5.34,10.04-6.1c-0.01-2.1-0.71-4.13-3.38-4.13c-1.89,0-3.6,0.9-4.88,1.75l-1.08-1.9c1.5-0.99,3.8-2.13,6.42-2.13
		c3.99,0,5.68,2.65,5.68,6.72v10.03h-2.29l-0.23-1.96h-0.09c-1.56,1.3-3.38,2.36-5.41,2.36
		C653.27,296.52,651.22,294.82,651.22,291.87z M661.26,292.13v-4.54c-5.48,0.66-7.33,2-7.33,4.09c0,1.86,1.26,2.62,2.87,2.62
		C658.37,294.29,659.68,293.53,661.26,292.13z"/>
	
		<linearGradient id="SVGID_00000001627094951056295890000009004612383145798566_" gradientUnits="userSpaceOnUse" x1="702.4211" y1="285.6572" x2="181.8649" y2="260.3118">
		<stop  offset="0.1349" style="stop-color:#00AEEF"/>
		<stop  offset="0.8873" style="stop-color:#12345E"/>
	</linearGradient>
	<path style="fill:url(#SVGID_00000001627094951056295890000009004612383145798566_);" d="M672.55,292.84v-20.68h2.77v20.88
		c0,0.85,0.37,1.18,0.77,1.18c0.16,0,0.29,0,0.61-0.07l0.38,2.11c-0.39,0.14-0.87,0.26-1.59,0.26
		C673.4,296.52,672.55,295.2,672.55,292.84z"/>
</g>
<g>
	<path class="st25" d="M60.18,229.3H35.84v-97.21h27.14c17.7,0,25.37,12.39,25.37,23.45c0,10.03-4.72,18-13.42,21.54v0.15
		c9.15,1.48,19.18,10.62,19.18,23.6C94.11,213.96,86.29,229.3,60.18,229.3z M59,142.13H46.61v32.45h12.54
		c8.56,0,17.55-5.75,17.55-16.96C76.7,147.88,71.1,142.13,59,142.13z M61.95,184.46H46.61v34.81h14.46
		c13.72,0,21.24-7.82,21.24-18.14C82.31,191.84,74.34,184.46,61.95,184.46z"/>
	<path class="st25" d="M157.54,229.3v-97.21h47.64l-4.13,10.03H168.3v32.45h32.45v9.88H168.3v34.81h37.32v10.03H157.54z"/>
	<path class="st25" d="M270.52,229.3v-97.21h10.77v87.18h36.88v10.03H270.52z"/>
	<path class="st25" d="M538.36,190.36v38.94h-10.77v-39.24l-32.3-57.97h11.8l17.26,31.12c2.95,5.16,6.34,11.21,8.7,16.23h0.29
		c2.21-5.02,5.46-11.21,8.11-16.23l16.82-31.12h11.36L538.36,190.36z"/>
	<path class="st25" d="M628.63,229.3v-97.21h47.64l-4.13,10.03H639.4v32.45h32.45v9.88H639.4v34.81h37.32v10.03H628.63z"/>
	<path class="st25" d="M791.92,229.3c-15.64-24.78-24.78-40.42-29.06-41.3h-10.47v41.3h-10.77v-97.21h20.06
		c22.86,0,32.16,11.65,32.16,26.26c0,13.87-8.85,22.57-19.03,26.26v0.15c3.1,1.47,14.16,19.62,29.94,44.55H791.92z M761.68,142.13
		h-9.29v36.29h9.88c11.36,0,19.91-8.7,19.91-18.88C782.18,150.24,777.17,142.13,761.68,142.13z"/>
</g>
<linearGradient id="SVGID_00000152245123862635484030000006029774181687284378_" gradientUnits="userSpaceOnUse" x1="351.5054" y1="163.5298" x2="502.2908" y2="163.5298">
	<stop  offset="0.1349" style="stop-color:#00AEEF"/>
	<stop  offset="0.8873" style="stop-color:#12345E"/>
</linearGradient>
<path style="fill:url(#SVGID_00000152245123862635484030000006029774181687284378_);" d="M502.29,230.23c-49.93,0-100.84,0-150.79,0
	c2.44-4.45,4.57-8.63,7.06-12.59c0.46-0.73,2.35-0.77,3.58-0.77c36.97-0.04,73.58-0.03,110.55-0.03c1.58,0,3.17,0,5.36,0
	c-2.49-4.41-4.68-8.33-6.91-12.22l-52-91.67c-1.27-2.2-1.39-3.87,0.02-6.01c2.15-3.26,3.93-6.13,6.28-10.11L502.29,230.23z"/>
<linearGradient id="SVGID_00000042733608900207226650000013444732877605511821_" gradientUnits="userSpaceOnUse" x1="316.7786" y1="145.2499" x2="465.597" y2="145.2499">
	<stop  offset="0.1349" style="stop-color:#00AEEF"/>
	<stop  offset="0.8873" style="stop-color:#12345E"/>
</linearGradient>
<path style="fill:url(#SVGID_00000042733608900207226650000013444732877605511821_);" d="M340.24,196.52
	c-0.38,0.68-0.64,1.42-1.25,2.79c1.67,0,2.91,0,4.15,0l111.86-0.05c2.38,0,3.89,0.52,4.98,2.83c1.56,3.34,3.54,6.49,5.63,10.26
	c-49.75,0-98.88,0-148.82,0l74.4-134.2c2.45,4.43,4.75,8.29,6.68,12.32c0.42,0.87-0.27,2.52-0.86,3.59L340.24,196.52z"/>
<linearGradient id="SVGID_00000159456513066821945300000006438087196171549569_" gradientUnits="userSpaceOnUse" x1="351.3374" y1="124.3134" x2="504.7852" y2="124.3134">
	<stop  offset="0.1349" style="stop-color:#00AEEF"/>
	<stop  offset="0.8873" style="stop-color:#12345E"/>
</linearGradient>
<path style="fill:url(#SVGID_00000159456513066821945300000006438087196171549569_);" d="M367.94,186.13
	c-1.16,2.08-2.36,3.14-4.9,2.96c-3.68-0.26-7.39-0.08-11.7-0.09c24.27-43.43,48.24-86.32,72.6-129.91l80.84,130.42
	c-5.06-0.02-9.55,0.1-14.02-0.18c-0.97-0.06-2.07-1.47-2.71-2.5L426.31,87.3c-0.41-0.66-0.92-1.25-1.82-2.45
	c-0.82,1.46-1.42,2.54-2.02,3.62L367.94,186.13z"/>
</svg>
